<svg width="20" height="18" viewBox="0 0 20 18" fill="none" xmlns="http://www.w3.org/2000/svg">
<path d="M9.75028 10.5844C12.604 10.5844 14.9344 8.2194 14.9344 5.27526C14.9344 2.37937 12.604 0.0144043 9.75028 0.0144043C6.89661 0.0144043 4.51855 2.37937 4.51855 5.27526C4.56612 8.2194 6.89661 10.5844 9.75028 10.5844ZM9.75028 0.834904C12.1759 0.834904 14.1259 2.81376 14.1259 5.27526C14.1259 7.73676 12.1759 9.71561 9.75028 9.71561C7.32466 9.71561 5.37466 7.73676 5.37466 5.27526C5.37466 2.81376 7.37222 0.834904 9.75028 0.834904Z" fill="#333333"/>
<path d="M0 16.9069C0.190244 17.1 0.380488 17.3413 0.570732 17.5344C2.90122 15.0729 6.18293 13.5767 9.75 13.5767C13.3646 13.5767 16.5988 15.0729 18.9293 17.5344C19.1195 17.3413 19.3098 17.1 19.5 16.9069C17.0268 14.3489 13.5549 12.7562 9.75 12.7562C5.94512 12.7079 2.47317 14.3489 0 16.9069Z" fill="#333333"/>
</svg>
