<svg width="120" height="60" viewBox="0 0 120 60" fill="none" xmlns="http://www.w3.org/2000/svg">
<g clip-path="url(#clip0)">
<path d="M119.332 30.6054C119.332 30.6054 88.6047 60 59.325 60H59.2067C30.6611 59.9234 0 30.8559 0 30.8559C0 30.8559 10.4175 20.9881 22.714 11.5657C29.0049 6.7432 37.4774 0.153076 45.0591 0.153076C46.531 0.153076 47.968 0.400119 49.3528 0.960313C51.9763 2.01807 58.4134 5.99859 59.2067 6.13777C59.2206 6.14125 59.2345 6.14125 59.2519 6.14125C60.2192 6.14125 66.4161 2.40081 69.0605 1.46136C70.334 1.00903 71.6353 0.807217 72.9506 0.807217C80.3514 0.807217 88.1907 7.20944 93.6952 11.3987C97.9401 14.6312 119.332 30.6054 119.332 30.6054Z" fill="#1E1E1C"/>
<path d="M24.1859 32.0214C24.1859 32.5677 24.0293 33.0618 23.7197 33.5002C23.4274 33.9212 23.0238 34.2483 22.5123 34.4814C21.966 34.7319 21.3571 34.8572 20.6856 34.8572C19.0015 34.8572 17.8324 34.3562 17.1748 33.3541C16.9382 32.9922 16.799 32.6199 16.7607 32.2372C16.7468 32.1119 16.8338 32.0075 17.0182 31.9275C17.133 31.8753 17.2687 31.8509 17.4253 31.8509C17.7385 31.8509 17.9124 31.9449 17.9403 32.1363C18.0377 32.7347 18.4517 33.1731 19.172 33.455C19.6591 33.6429 20.1428 33.7403 20.6229 33.7403C21.625 33.7403 22.3209 33.4724 22.7071 32.94C22.8846 32.693 22.9716 32.4251 22.9716 32.1328C22.9716 31.5274 22.6028 31.082 21.8616 30.7967C21.5659 30.6853 20.9744 30.5253 20.0871 30.32C19.3181 30.1425 18.7371 29.9512 18.3508 29.7459C17.4566 29.2727 17.0078 28.5872 17.0078 27.686C17.0078 27.1711 17.1539 26.7083 17.4462 26.2977C17.7315 25.9011 18.1142 25.6018 18.6014 25.4C19.1233 25.1843 19.7009 25.0764 20.3376 25.0764C21.8129 25.0764 22.8463 25.5218 23.4309 26.4125C23.6675 26.7744 23.7892 27.1502 23.7927 27.5364C23.7927 27.6477 23.6988 27.7382 23.5144 27.8008C23.3682 27.853 23.2291 27.8774 23.0934 27.8774C22.7976 27.8774 22.6271 27.7939 22.5888 27.6269C22.3696 26.6665 21.6355 26.1864 20.3863 26.1864C19.8122 26.1864 19.339 26.2803 18.9597 26.4647C18.4622 26.7083 18.2117 27.091 18.2117 27.606C18.2117 28.0862 18.4831 28.455 19.0259 28.709C19.2451 28.8134 19.7287 28.9491 20.4733 29.1161C21.4858 29.3457 22.1817 29.5475 22.5645 29.7215C23.6466 30.2086 24.1859 30.9776 24.1859 32.0214Z" fill="white"/>
<path d="M27.0668 34.4362C27.0668 34.6902 26.8581 34.8155 26.4405 34.8155C26.023 34.8155 25.8142 34.6902 25.8142 34.4362V25.6158C25.8142 25.4592 25.8942 25.3409 26.0543 25.2539C26.1865 25.1809 26.3396 25.1426 26.5066 25.1426C26.8824 25.1426 27.0668 25.2992 27.0668 25.6123V34.4362Z" fill="white"/>
<path d="M36.1344 32.0214C36.1344 32.5677 35.9778 33.0618 35.6681 33.5002C35.3759 33.9212 34.9723 34.2483 34.4608 34.4814C33.9145 34.7319 33.3056 34.8572 32.634 34.8572C30.95 34.8572 29.7809 34.3562 29.1233 33.3541C28.8867 32.9922 28.7475 32.6199 28.7092 32.2372C28.6953 32.1119 28.7823 32.0075 28.9667 31.9275C29.0815 31.8753 29.2172 31.8509 29.3738 31.8509C29.6869 31.8509 29.8609 31.9449 29.8887 32.1363C29.9862 32.7347 30.4002 33.1731 31.1205 33.455C31.6076 33.6429 32.0912 33.7403 32.5714 33.7403C33.5735 33.7403 34.2694 33.4724 34.6556 32.94C34.8331 32.693 34.9201 32.4251 34.9201 32.1328C34.9201 31.5274 34.5512 31.082 33.8101 30.7967C33.5144 30.6853 32.9228 30.5253 32.0356 30.32C31.2666 30.1425 30.6855 29.9512 30.2993 29.7459C29.4051 29.2727 28.9562 28.5872 28.9562 27.686C28.9562 27.1711 29.1024 26.7083 29.3947 26.2977C29.68 25.9011 30.0627 25.6018 30.5498 25.4C31.0718 25.1843 31.6494 25.0764 32.2861 25.0764C33.7614 25.0764 34.7948 25.5218 35.3793 26.4125C35.616 26.7744 35.7377 27.1502 35.7412 27.5364C35.7412 27.6477 35.6473 27.7382 35.4629 27.8008C35.3167 27.853 35.1775 27.8774 35.0418 27.8774C34.7461 27.8774 34.5756 27.7939 34.5373 27.6269C34.3181 26.6665 33.5839 26.1864 32.3348 26.1864C31.7607 26.1864 31.2875 26.2803 30.9082 26.4647C30.4107 26.7083 30.1601 27.091 30.1601 27.606C30.1601 28.0862 30.4315 28.455 30.9743 28.709C31.1935 28.8134 31.6772 28.9491 32.4218 29.1161C33.4343 29.3457 34.1302 29.5475 34.513 29.7215C35.5951 30.2086 36.1344 30.9776 36.1344 32.0214Z" fill="white"/>
<path d="M43.6745 25.8454C43.6745 26.1759 43.5875 26.3394 43.4101 26.3394H40.9257V34.5719C40.9257 34.7528 40.7135 34.8433 40.2855 34.8433C39.8784 34.8433 39.6731 34.7528 39.6731 34.5719V26.3394H37.1992C36.9974 26.3394 36.8965 26.1585 36.8965 25.7932C36.8965 25.4174 36.9974 25.2295 37.1992 25.2295H43.4101C43.584 25.2295 43.6745 25.4348 43.6745 25.8454Z" fill="white"/>
<path d="M52.2618 34.1021C52.2618 34.2622 52.213 34.3979 52.1156 34.5162C52.0182 34.6345 51.8929 34.6937 51.7364 34.6937H45.188V25.2295H51.7085C51.9695 25.2295 52.1017 25.4209 52.1017 25.8001C52.1017 26.1585 51.9695 26.3394 51.7085 26.3394H46.4406V29.2448H50.3202C50.6403 29.2448 50.7969 29.4397 50.7969 29.8259C50.7969 30.1773 50.6368 30.3548 50.3202 30.3548H46.4406V33.5837H51.7364C52.0878 33.5837 52.2618 33.7577 52.2618 34.1021Z" fill="white"/>
<path d="M60.6334 27.9678C60.6334 29.0917 60.0523 30.1564 59.2451 30.6227C59.9479 31.0646 60.1045 31.2873 60.4768 32.2128L61.4023 34.5823C61.4023 34.7841 61.2005 34.885 60.8004 34.885C60.4037 34.885 60.268 34.8015 60.1741 34.5823C60.1741 34.5823 59.165 32.1919 59.0015 31.9136C58.7162 31.4334 58.2047 31.1133 57.4636 31.1133C57.4531 31.1237 57.4253 31.1237 57.4253 31.1133C57.3139 31.1133 57.1991 31.1133 57.0843 31.1133H55.0453V34.5649C55.0453 34.7876 54.8331 34.9024 54.4051 34.9024C53.9945 34.9024 53.7927 34.7911 53.7927 34.5684V25.2295H56.9764C57.5888 25.2295 58.069 25.2608 58.4169 25.32C59.3425 25.48 59.9862 25.9323 60.348 26.677C60.5359 27.0632 60.6334 27.4946 60.6334 27.9678ZM59.339 28.0026C59.339 27.6303 59.2451 27.3033 59.0606 27.0179C58.8623 26.7152 58.5909 26.5169 58.2464 26.423C58.0412 26.3673 57.6515 26.3394 57.0773 26.3394H55.0453V29.9998H57.1052C58.5944 29.9998 59.339 29.1543 59.339 28.0026Z" fill="white"/>
<path d="M73.2257 34.1787C73.2257 34.5197 73.076 34.6937 72.7803 34.6937H67.2549V25.6818C67.2549 25.5322 67.3314 25.4139 67.488 25.3269C67.6168 25.2539 67.7629 25.2156 67.9264 25.2156C68.3126 25.2156 68.5075 25.3722 68.5075 25.6818V33.5837H72.7803C73.0795 33.5837 73.2257 33.782 73.2257 34.1787Z" fill="white"/>
<path d="M81.0821 25.3339C81.0821 25.3896 81.0647 25.4453 81.0299 25.494L77.6201 30.8141V34.4988C77.6201 34.7285 77.4078 34.8398 76.9798 34.8398C76.5693 34.8398 76.3675 34.725 76.3675 34.4988V30.8141L73.0167 25.4418C73.0028 25.4174 72.9958 25.3896 72.9958 25.3652C72.9958 25.24 73.0828 25.1391 73.2533 25.0625C73.3925 24.9964 73.5317 24.9651 73.6744 24.9651C74.0606 24.9651 74.3494 25.1251 74.5373 25.4453L76.9972 29.5476L79.5686 25.4974C79.7843 25.1599 80.094 24.9929 80.4976 24.9929C80.8873 24.9894 81.0821 25.1043 81.0821 25.3339Z" fill="white"/>
<path d="M89.5826 31.9484C89.5826 32.8739 89.259 33.5802 88.6084 34.0673C88.0517 34.4849 87.1992 34.6937 86.044 34.6937H82.4358V25.2295H85.9883C87.3523 25.2295 88.2743 25.6192 88.758 26.3986C89.005 26.7953 89.1268 27.2128 89.1268 27.6512C89.1268 28.5524 88.6849 29.2204 87.8046 29.6589C88.3613 29.8224 88.7928 30.1007 89.1025 30.4905C89.4226 30.8941 89.5826 31.3812 89.5826 31.9484ZM87.8916 27.7939C87.8916 27.0945 87.6028 26.6526 87.0217 26.4682C86.7503 26.3812 86.2702 26.3394 85.5812 26.3394H83.6884V29.2065H85.7343C86.291 29.2065 86.6877 29.1683 86.9278 29.0952C87.5715 28.9003 87.8916 28.4689 87.8916 27.7939ZM88.2848 31.9484C88.2848 31.1863 87.9438 30.6957 87.2653 30.4696C86.9521 30.3652 86.4894 30.313 85.877 30.313H83.6884V33.5802H86.044C86.4441 33.5802 86.7295 33.5663 86.8965 33.535C87.822 33.368 88.2848 32.8391 88.2848 31.9484Z" fill="white"/>
<path d="M92.6757 34.4362C92.6757 34.6902 92.4669 34.8155 92.0494 34.8155C91.6319 34.8155 91.4231 34.6902 91.4231 34.4362V25.6158C91.4231 25.4592 91.5031 25.3409 91.6632 25.2539C91.7954 25.1809 91.9485 25.1426 92.1155 25.1426C92.4913 25.1426 92.6757 25.2992 92.6757 25.6123V34.4362Z" fill="white"/>
<path d="M102.558 29.9094C102.558 31.0472 102.349 32.0005 101.931 32.7765C101.437 33.702 100.682 34.2866 99.6731 34.5336C99.2312 34.6415 98.7232 34.6937 98.1491 34.6937H94.8645V25.2295H97.996C98.7337 25.2295 99.2939 25.2747 99.6801 25.3652C100.884 25.6435 101.723 26.409 102.192 27.6582C102.432 28.3053 102.558 29.0569 102.558 29.9094ZM101.267 29.892C101.267 28.0861 100.71 26.9657 99.5931 26.5343C99.2591 26.4056 98.7163 26.3394 97.9717 26.3394H96.1136V33.5837H98.0065C99.1095 33.5837 99.8819 33.361 100.324 32.9191C100.95 32.2859 101.267 31.2803 101.267 29.892Z" fill="white"/>
</g>
<defs>
<clipPath id="clip0">
<rect width="119.332" height="60" fill="white"/>
</clipPath>
</defs>
</svg>
