<svg width="17" height="17" viewBox="0 0 17 17" fill="none" xmlns="http://www.w3.org/2000/svg">
<path d="M10.6912 10.0457C11.6544 8.93496 12.136 7.53444 12.136 6.08563C12.136 2.70507 9.39094 0.000625918 6.06799 0.000625918C2.74504 -0.0476678 0 2.70507 0 6.03734C0 9.41789 2.74504 12.1223 6.06799 12.1223C7.51275 12.1223 8.90935 11.5911 10.017 10.6735L16.3258 17L17 16.3239L10.6912 10.0457ZM11.3654 6.03734C11.3654 8.93496 9.00567 11.3013 6.11615 11.3013C3.22663 11.3013 0.866856 8.93496 0.866856 6.03734C0.866856 3.13972 3.22663 0.773325 6.11615 0.773325C9.00567 0.773325 11.3654 3.13972 11.3654 6.03734Z" fill="#333333"/>
</svg>
